<mxfile host="app.diagrams.net" modified="2023-05-31T12:42:05.979Z" agent="Mozilla/5.0 (Windows NT 10.0; Win64; x64) AppleWebKit/537.36 (KHTML, like Gecko) Chrome/113.0.0.0 Safari/537.36" etag="udJu0m5kFYbYS5cjLFX0" version="21.3.6" type="google">
  <diagram name="Page-1" id="kefTcEmYU8uC0NVpySMM">
    <mxGraphModel grid="1" page="1" gridSize="10" guides="1" tooltips="1" connect="1" arrows="1" fold="1" pageScale="1" pageWidth="850" pageHeight="1100" math="0" shadow="0">
      <root>
        <mxCell id="0" />
        <mxCell id="1" parent="0" />
        <mxCell id="T8QIY-7ACmBwsz4RY4zo-18" style="edgeStyle=orthogonalEdgeStyle;rounded=0;orthogonalLoop=1;jettySize=auto;html=1;exitX=0.5;exitY=1;exitDx=0;exitDy=0;entryX=0.5;entryY=0;entryDx=0;entryDy=0;" edge="1" parent="1" source="T8QIY-7ACmBwsz4RY4zo-3" target="T8QIY-7ACmBwsz4RY4zo-16">
          <mxGeometry relative="1" as="geometry" />
        </mxCell>
        <mxCell id="T8QIY-7ACmBwsz4RY4zo-3" value="display &quot;no vendors match the search&quot;" style="rounded=1;whiteSpace=wrap;html=1;" vertex="1" parent="1">
          <mxGeometry x="45" y="450" width="110" height="50" as="geometry" />
        </mxCell>
        <mxCell id="T8QIY-7ACmBwsz4RY4zo-17" style="edgeStyle=orthogonalEdgeStyle;rounded=0;orthogonalLoop=1;jettySize=auto;html=1;exitX=0.5;exitY=1;exitDx=0;exitDy=0;" edge="1" parent="1" source="T8QIY-7ACmBwsz4RY4zo-4" target="T8QIY-7ACmBwsz4RY4zo-16">
          <mxGeometry relative="1" as="geometry" />
        </mxCell>
        <mxCell id="T8QIY-7ACmBwsz4RY4zo-4" value="display results&amp;nbsp;" style="rounded=1;whiteSpace=wrap;html=1;" vertex="1" parent="1">
          <mxGeometry x="230" y="390" width="90" height="50" as="geometry" />
        </mxCell>
        <mxCell id="T8QIY-7ACmBwsz4RY4zo-11" style="edgeStyle=orthogonalEdgeStyle;rounded=0;orthogonalLoop=1;jettySize=auto;html=1;exitX=0.5;exitY=1;exitDx=0;exitDy=0;" edge="1" parent="1" source="T8QIY-7ACmBwsz4RY4zo-5" target="T8QIY-7ACmBwsz4RY4zo-8">
          <mxGeometry relative="1" as="geometry" />
        </mxCell>
        <mxCell id="T8QIY-7ACmBwsz4RY4zo-5" value="enter vendor name&amp;nbsp;" style="rounded=1;whiteSpace=wrap;html=1;" vertex="1" parent="1">
          <mxGeometry x="45" y="250" width="110" height="40" as="geometry" />
        </mxCell>
        <mxCell id="T8QIY-7ACmBwsz4RY4zo-10" style="edgeStyle=orthogonalEdgeStyle;rounded=0;orthogonalLoop=1;jettySize=auto;html=1;exitX=0.5;exitY=1;exitDx=0;exitDy=0;" edge="1" parent="1" source="T8QIY-7ACmBwsz4RY4zo-6" target="T8QIY-7ACmBwsz4RY4zo-5">
          <mxGeometry relative="1" as="geometry" />
        </mxCell>
        <mxCell id="T8QIY-7ACmBwsz4RY4zo-6" value="user navigates to vendor search bar/section&amp;nbsp;" style="rounded=1;whiteSpace=wrap;html=1;" vertex="1" parent="1">
          <mxGeometry x="45" y="160" width="110" height="50" as="geometry" />
        </mxCell>
        <mxCell id="T8QIY-7ACmBwsz4RY4zo-9" style="edgeStyle=orthogonalEdgeStyle;rounded=0;orthogonalLoop=1;jettySize=auto;html=1;exitX=0.5;exitY=1;exitDx=0;exitDy=0;entryX=0.5;entryY=0;entryDx=0;entryDy=0;" edge="1" parent="1" source="T8QIY-7ACmBwsz4RY4zo-7" target="T8QIY-7ACmBwsz4RY4zo-6">
          <mxGeometry relative="1" as="geometry" />
        </mxCell>
        <mxCell id="T8QIY-7ACmBwsz4RY4zo-7" value="user logs in (AD001) admin/customer" style="rounded=1;whiteSpace=wrap;html=1;" vertex="1" parent="1">
          <mxGeometry x="50" y="80" width="110" height="50" as="geometry" />
        </mxCell>
        <mxCell id="T8QIY-7ACmBwsz4RY4zo-12" style="edgeStyle=orthogonalEdgeStyle;rounded=0;orthogonalLoop=1;jettySize=auto;html=1;exitX=1;exitY=0.5;exitDx=0;exitDy=0;entryX=0;entryY=0.5;entryDx=0;entryDy=0;" edge="1" parent="1" source="T8QIY-7ACmBwsz4RY4zo-8" target="T8QIY-7ACmBwsz4RY4zo-4">
          <mxGeometry relative="1" as="geometry" />
        </mxCell>
        <mxCell id="T8QIY-7ACmBwsz4RY4zo-19" value="yes" style="edgeLabel;html=1;align=center;verticalAlign=middle;resizable=0;points=[];" connectable="0" vertex="1" parent="T8QIY-7ACmBwsz4RY4zo-12">
          <mxGeometry x="-0.504" y="-1" relative="1" as="geometry">
            <mxPoint as="offset" />
          </mxGeometry>
        </mxCell>
        <mxCell id="T8QIY-7ACmBwsz4RY4zo-13" value="no" style="edgeStyle=orthogonalEdgeStyle;rounded=0;orthogonalLoop=1;jettySize=auto;html=1;exitX=0.5;exitY=1;exitDx=0;exitDy=0;" edge="1" parent="1" source="T8QIY-7ACmBwsz4RY4zo-8" target="T8QIY-7ACmBwsz4RY4zo-3">
          <mxGeometry relative="1" as="geometry" />
        </mxCell>
        <mxCell id="T8QIY-7ACmBwsz4RY4zo-8" value="search successful?" style="rhombus;whiteSpace=wrap;html=1;" vertex="1" parent="1">
          <mxGeometry x="50" y="330" width="100" height="80" as="geometry" />
        </mxCell>
        <mxCell id="T8QIY-7ACmBwsz4RY4zo-14" value="" style="ellipse;html=1;shape=startState;fillColor=#000000;strokeColor=#ff0000;" vertex="1" parent="1">
          <mxGeometry x="90" y="10" width="30" height="30" as="geometry" />
        </mxCell>
        <mxCell id="T8QIY-7ACmBwsz4RY4zo-15" value="" style="edgeStyle=orthogonalEdgeStyle;html=1;verticalAlign=bottom;endArrow=open;endSize=8;strokeColor=#ff0000;rounded=0;entryX=0.5;entryY=0;entryDx=0;entryDy=0;" edge="1" parent="1" source="T8QIY-7ACmBwsz4RY4zo-14" target="T8QIY-7ACmBwsz4RY4zo-7">
          <mxGeometry relative="1" as="geometry">
            <mxPoint x="100" y="70" as="targetPoint" />
          </mxGeometry>
        </mxCell>
        <mxCell id="T8QIY-7ACmBwsz4RY4zo-16" value="" style="ellipse;html=1;shape=endState;fillColor=#000000;strokeColor=#ff0000;" vertex="1" parent="1">
          <mxGeometry x="155" y="560" width="30" height="30" as="geometry" />
        </mxCell>
      </root>
    </mxGraphModel>
  </diagram>
</mxfile>
